<svg width="80" height="80" viewBox="0 0 80 80" fill="none" xmlns="http://www.w3.org/2000/svg">
<path d="M13 0C9.55219 0 6.24558 1.36964 3.80761 3.80761C1.36964 6.24558 0 9.55219 0 13V59C0 62.4478 1.36964 65.7544 3.80761 68.1924C6.24558 70.6304 9.55219 72 13 72H36.088C34.8891 70.13 33.936 68.1134 33.252 66H13C11.1435 66 9.36301 65.2625 8.05025 63.9497C6.7375 62.637 6 60.8565 6 59V13C6 9.136 9.136 6 13 6H59C62.864 6 66 9.136 66 13V33.252C68.1134 33.936 70.13 34.8891 72 36.088V13C72 9.55219 70.6304 6.24558 68.1924 3.80761C65.7544 1.36964 62.4478 0 59 0H13ZM38 25C38 24.2044 38.3161 23.4413 38.8787 22.8787C39.4413 22.3161 40.2044 22 41 22H55C55.7956 22 56.5587 22.3161 57.1213 22.8787C57.6839 23.4413 58 24.2044 58 25C58 25.7956 57.6839 26.5587 57.1213 27.1213C56.5587 27.6839 55.7956 28 55 28H41C40.2044 28 39.4413 27.6839 38.8787 27.1213C38.3161 26.5587 38 25.7956 38 25V25ZM31.12 23.12C31.4147 22.8454 31.6512 22.5141 31.8151 22.1462C31.9791 21.7782 32.0673 21.3809 32.0744 20.9781C32.0815 20.5753 32.0074 20.1752 31.8565 19.8016C31.7056 19.4281 31.481 19.0887 31.1962 18.8038C30.9113 18.519 30.5719 18.2944 30.1984 18.1435C29.8248 17.9926 29.4247 17.9185 29.0219 17.9256C28.6191 17.9327 28.2218 18.0209 27.8538 18.1849C27.4859 18.3488 27.1546 18.5853 26.88 18.88L21 24.76L19.12 22.88C18.5513 22.3501 17.7991 22.0616 17.0219 22.0753C16.2447 22.089 15.5032 22.4039 14.9535 22.9535C14.4039 23.5032 14.089 24.2447 14.0753 25.0219C14.0616 25.7991 14.3501 26.5513 14.88 27.12L18.88 31.12C19.4425 31.6818 20.205 31.9974 21 31.9974C21.795 31.9974 22.5575 31.6818 23.12 31.12L31.12 23.12V23.12ZM31.12 40.88C31.6818 41.4425 31.9974 42.205 31.9974 43C31.9974 43.795 31.6818 44.5575 31.12 45.12L23.12 53.12C22.5575 53.6818 21.795 53.9974 21 53.9974C20.205 53.9974 19.4425 53.6818 18.88 53.12L14.88 49.12C14.5853 48.8454 14.3488 48.5141 14.1849 48.1462C14.0209 47.7782 13.9327 47.3809 13.9256 46.9781C13.9185 46.5753 13.9926 46.1752 14.1435 45.8016C14.2944 45.4281 14.519 45.0887 14.8038 44.8038C15.0887 44.519 15.4281 44.2944 15.8016 44.1435C16.1752 43.9926 16.5753 43.9185 16.9781 43.9256C17.3809 43.9327 17.7782 44.0209 18.1462 44.1849C18.5141 44.3488 18.8454 44.5853 19.12 44.88L21 46.76L26.88 40.88C27.4425 40.3182 28.205 40.0026 29 40.0026C29.795 40.0026 30.5575 40.3182 31.12 40.88V40.88ZM80 58C80 52.1652 77.6822 46.5694 73.5564 42.4436C69.4306 38.3178 63.8348 36 58 36C52.1652 36 46.5694 38.3178 42.4436 42.4436C38.3178 46.5694 36 52.1652 36 58C36 63.8348 38.3178 69.4306 42.4436 73.5564C46.5694 77.6822 52.1652 80 58 80C63.8348 80 69.4306 77.6822 73.5564 73.5564C77.6822 69.4306 80 63.8348 80 58ZM60 60L60.004 70.012C60.004 70.5424 59.7933 71.0511 59.4182 71.4262C59.0431 71.8013 58.5344 72.012 58.004 72.012C57.4736 72.012 56.9649 71.8013 56.5898 71.4262C56.2147 71.0511 56.004 70.5424 56.004 70.012V60H45.984C45.4536 60 44.9449 59.7893 44.5698 59.4142C44.1947 59.0391 43.984 58.5304 43.984 58C43.984 57.4696 44.1947 56.9609 44.5698 56.5858C44.9449 56.2107 45.4536 56 45.984 56H56V46C56 45.4696 56.2107 44.9609 56.5858 44.5858C56.9609 44.2107 57.4696 44 58 44C58.5304 44 59.0391 44.2107 59.4142 44.5858C59.7893 44.9609 60 45.4696 60 46V56H69.988C70.5184 56 71.0271 56.2107 71.4022 56.5858C71.7773 56.9609 71.988 57.4696 71.988 58C71.988 58.5304 71.7773 59.0391 71.4022 59.4142C71.0271 59.7893 70.5184 60 69.988 60H60Z" fill="white"/>
</svg>
