<svg width="70" height="82" viewBox="0 0 70 82" fill="none" xmlns="http://www.w3.org/2000/svg">
<path d="M11.6646 0C12.4381 0 13.1798 0.307237 13.7267 0.854123C14.2736 1.40101 14.5808 2.14275 14.5808 2.91616V5.83232H26.2454V2.91616C26.2454 2.14275 26.5527 1.40101 27.0996 0.854123C27.6465 0.307237 28.3882 0 29.1616 0C29.935 0 30.6768 0.307237 31.2236 0.854123C31.7705 1.40101 32.0778 2.14275 32.0778 2.91616V5.83232H43.7424V2.91616C43.7424 2.14275 44.0496 1.40101 44.5965 0.854123C45.1434 0.307237 45.8851 0 46.6586 0C47.432 0 48.1737 0.307237 48.7206 0.854123C49.2675 1.40101 49.5747 2.14275 49.5747 2.91616V5.83232C51.895 5.83232 54.1202 6.75403 55.7608 8.39469C57.4015 10.0353 58.3232 12.2606 58.3232 14.5808V29.3716C56.2323 29.7352 54.2435 30.5426 52.4909 31.7395V14.5808C52.4909 13.8074 52.1836 13.0657 51.6368 12.5188C51.0899 11.9719 50.3481 11.6646 49.5747 11.6646H8.74848C7.97507 11.6646 7.23333 11.9719 6.68644 12.5188C6.13956 13.0657 5.83232 13.8074 5.83232 14.5808V72.904C5.83232 73.6774 6.13956 74.4192 6.68644 74.966C7.23333 75.5129 7.97507 75.8202 8.74848 75.8202H17.7711V75.8318C17.2736 77.7642 17.4127 79.8055 18.1677 81.6525H8.74848C6.42824 81.6525 4.20303 80.7308 2.56237 79.0901C0.921713 77.4495 0 75.2242 0 72.904V14.5808C0 12.2606 0.921713 10.0353 2.56237 8.39469C4.20303 6.75403 6.42824 5.83232 8.74848 5.83232V2.91616C8.74848 2.14275 9.05572 1.40101 9.6026 0.854123C10.1495 0.307237 10.8912 0 11.6646 0ZM40.8262 40.8262C41.4503 40.8262 42.0277 41.0245 42.506 41.357L37.1985 46.6586H17.497C16.7235 46.6586 15.9818 46.3513 15.4349 45.8044C14.888 45.2576 14.5808 44.5158 14.5808 43.7424C14.5808 42.969 14.888 42.2272 15.4349 41.6804C15.9818 41.1335 16.7235 40.8262 17.497 40.8262H40.8262ZM23.306 60.8603C23.2139 60.1583 22.8696 59.5137 22.3373 59.0469C21.8051 58.5801 21.1211 58.3229 20.4131 58.3232H17.497C16.7235 58.3232 15.9818 58.6304 15.4349 59.1773C14.888 59.7242 14.5808 60.466 14.5808 61.2394C14.5808 62.0128 14.888 62.7545 15.4349 63.3014C15.9818 63.8483 16.7235 64.1555 17.497 64.1555H20.4131C20.7242 64.1563 21.0333 64.107 21.3288 64.0097C21.8945 62.9074 22.5536 61.8518 23.306 60.8603ZM17.497 23.3293C16.7235 23.3293 15.9818 23.6365 15.4349 24.1834C14.888 24.7303 14.5808 25.472 14.5808 26.2454C14.5808 27.0189 14.888 27.7606 15.4349 28.3075C15.9818 28.8544 16.7235 29.1616 17.497 29.1616H40.8262C41.5997 29.1616 42.3414 28.8544 42.8883 28.3075C43.4352 27.7606 43.7424 27.0189 43.7424 26.2454C43.7424 25.472 43.4352 24.7303 42.8883 24.1834C42.3414 23.6365 41.5997 23.3293 40.8262 23.3293H17.497ZM54.4622 37.6476C56.1691 35.9407 58.4842 34.9818 60.8982 34.9818C63.3121 34.9818 65.6272 35.9407 67.3341 37.6476C69.0411 39.3545 70 41.6696 70 44.0836C70 46.4976 69.0411 48.8126 67.3341 50.5196L42.3193 75.5285C40.2442 77.6053 37.6436 79.079 34.7956 79.792L27.7327 81.5592C27.1364 81.7086 26.5116 81.701 25.9191 81.5371C25.3266 81.3732 24.7867 81.0586 24.3521 80.6239C23.9174 80.1892 23.6027 79.6493 23.4388 79.0568C23.2749 78.4644 23.2673 77.8395 23.4168 77.2432L25.1898 70.1861C25.9013 67.3341 27.3711 64.7329 29.4474 62.6625L54.4622 37.6476Z" fill="white"/>
</svg>
