<svg width="8" height="14" viewBox="0 0 8 14" fill="none" xmlns="http://www.w3.org/2000/svg">
<path d="M7.78279 6.46867L1.72295 0.408948C1.5828 0.268681 1.3957 0.191406 1.1962 0.191406C0.996706 0.191406 0.809609 0.268681 0.669453 0.408948L0.223188 0.855102C-0.0671998 1.14582 -0.0671998 1.61832 0.223188 1.9086L5.31178 6.9972L0.217542 12.0914C0.0773851 12.2317 0 12.4187 0 12.6181C0 12.8177 0.0773851 13.0047 0.217542 13.145L0.663807 13.5911C0.804074 13.7314 0.99106 13.8086 1.19056 13.8086C1.39005 13.8086 1.57715 13.7314 1.71731 13.5911L7.78279 7.52583C7.92328 7.38512 8.00044 7.19725 8 6.99753C8.00044 6.79704 7.92328 6.60927 7.78279 6.46867Z" fill="white"/>
</svg>
