<svg width="30" height="30" viewBox="0 0 30 30" fill="none" xmlns="http://www.w3.org/2000/svg">
<path d="M28.0748 12.6921H6.56979L15.965 3.29687C16.7158 2.54603 16.7158 1.31387 15.965 0.563025C15.7869 0.384549 15.5753 0.242952 15.3424 0.14634C15.1095 0.0497285 14.8598 0 14.6077 0C14.3555 0 14.1059 0.0497285 13.873 0.14634C13.6401 0.242952 13.4285 0.384549 13.2504 0.563025L0.563026 13.2504C0.384549 13.4285 0.242952 13.6401 0.146341 13.873C0.0497294 14.1059 0 14.3555 0 14.6077C0 14.8598 0.0497294 15.1095 0.146341 15.3424C0.242952 15.5753 0.384549 15.7869 0.563026 15.965L13.2504 28.6523C13.4286 28.8306 13.6402 28.972 13.8731 29.0684C14.106 29.1649 14.3556 29.2145 14.6077 29.2145C14.8598 29.2145 15.1094 29.1649 15.3422 29.0684C15.5751 28.972 15.7867 28.8306 15.965 28.6523C16.1432 28.4741 16.2846 28.2625 16.3811 28.0296C16.4775 27.7967 16.5272 27.5471 16.5272 27.295C16.5272 27.043 16.4775 26.7934 16.3811 26.5605C16.2846 26.3276 16.1432 26.116 15.965 25.9377L6.56979 16.5425H28.0748C29.1336 16.5425 30 15.6762 30 14.6173C30 13.5584 29.1336 12.6921 28.0748 12.6921Z" fill="white"/>
</svg>
