<svg width="30" height="27" viewBox="0 0 30 27" fill="none" xmlns="http://www.w3.org/2000/svg">
<path d="M15 19.8041C17.6509 19.8041 19.8 17.6551 19.8 15.0041C19.8 12.3531 17.6509 10.2041 15 10.2041C12.349 10.2041 10.2 12.3531 10.2 15.0041C10.2 17.6551 12.349 19.8041 15 19.8041Z" fill="white"/>
<path d="M10.5 0L7.755 3H3C1.35 3 0 4.35 0 6V24C0 25.65 1.35 27 3 27H27C28.65 27 30 25.65 30 24V6C30 4.35 28.65 3 27 3H22.245L19.5 0H10.5ZM15 22.5C10.86 22.5 7.5 19.14 7.5 15C7.5 10.86 10.86 7.5 15 7.5C19.14 7.5 22.5 10.86 22.5 15C22.5 19.14 19.14 22.5 15 22.5Z" fill="white"/>
</svg>
