<svg width="20" height="25" viewBox="0 0 20 25" fill="none" xmlns="http://www.w3.org/2000/svg">
<path fill-rule="evenodd" clip-rule="evenodd" d="M8.75 13.75V11.25H2.8575C1.27875 11.25 0 10.1313 0 8.75C0 7.36875 1.27875 6.25 2.8575 6.25H8.75V1.25C8.75 0.918479 8.8817 0.600537 9.11612 0.366116C9.35054 0.131696 9.66848 0 10 0C10.3315 0 10.6495 0.131696 10.8839 0.366116C11.1183 0.600537 11.25 0.918479 11.25 1.25V6.25H17.1425C18.7213 6.25 20 7.36875 20 8.75C20 10.1313 18.7213 11.25 17.1425 11.25H11.25V13.75H15C15.663 13.75 16.2989 14.0134 16.7678 14.4822C17.2366 14.9511 17.5 15.587 17.5 16.25C17.5 16.913 17.2366 17.5489 16.7678 18.0178C16.2989 18.4866 15.663 18.75 15 18.75H11.25V23.75C11.25 24.0815 11.1183 24.3995 10.8839 24.6339C10.6495 24.8683 10.3315 25 10 25C9.66848 25 9.35054 24.8683 9.11612 24.6339C8.8817 24.3995 8.75 24.0815 8.75 23.75V18.75H5C4.33696 18.75 3.70107 18.4866 3.23223 18.0178C2.76339 17.5489 2.5 16.913 2.5 16.25C2.5 15.587 2.76339 14.9511 3.23223 14.4822C3.70107 14.0134 4.33696 13.75 5 13.75H8.75Z" fill="white"/>
</svg>
