<svg width="27" height="27" viewBox="0 0 27 27" fill="none" xmlns="http://www.w3.org/2000/svg">
<path d="M15.7904 13.5002L25.5249 3.76519C26.1584 3.13197 26.1584 2.10814 25.5249 1.47492C24.8917 0.841695 23.8679 0.841695 23.2346 1.47492L13.4999 11.2099L3.76535 1.47492C3.13185 0.841695 2.10834 0.841695 1.47513 1.47492C0.841624 2.10814 0.841624 3.13197 1.47513 3.76519L11.2096 13.5002L1.47513 23.2352C0.841624 23.8684 0.841624 24.8922 1.47513 25.5255C1.79069 25.8413 2.20562 26 2.62024 26C3.03487 26 3.44949 25.8413 3.76535 25.5255L13.4999 15.7905L23.2346 25.5255C23.5505 25.8413 23.9651 26 24.3798 26C24.7944 26 25.209 25.8413 25.5249 25.5255C26.1584 24.8922 26.1584 23.8684 25.5249 23.2352L15.7904 13.5002Z" fill="white" stroke="#657693" stroke-width="0.2"/>
</svg>
