<svg width="20" height="21" viewBox="0 0 20 21" fill="none" xmlns="http://www.w3.org/2000/svg">
<path d="M7.27273 8.72727V15.7091C7.27273 15.9406 7.36851 16.1625 7.53899 16.3262C7.70948 16.4899 7.94071 16.5818 8.18182 16.5818C8.42292 16.5818 8.65416 16.4899 8.82464 16.3262C8.99513 16.1625 9.09091 15.9406 9.09091 15.7091V8.72727C9.09091 8.49581 8.99513 8.27383 8.82464 8.11016C8.65416 7.94649 8.42292 7.85454 8.18182 7.85454C7.94071 7.85454 7.70948 7.94649 7.53899 8.11016C7.36851 8.27383 7.27273 8.49581 7.27273 8.72727ZM11.8182 7.85454C12.0593 7.85454 12.2905 7.94649 12.461 8.11016C12.6315 8.27383 12.7273 8.49581 12.7273 8.72727V15.7091C12.7273 15.9406 12.6315 16.1625 12.461 16.3262C12.2905 16.4899 12.0593 16.5818 11.8182 16.5818C11.5771 16.5818 11.3458 16.4899 11.1754 16.3262C11.0049 16.1625 10.9091 15.9406 10.9091 15.7091V8.72727C10.9091 8.49581 11.0049 8.27383 11.1754 8.11016C11.3458 7.94649 11.5771 7.85454 11.8182 7.85454ZM13.6364 3.49091H19.0909C19.332 3.49091 19.5632 3.58286 19.7337 3.74652C19.9042 3.91019 20 4.13217 20 4.36364C20 4.5951 19.9042 4.81708 19.7337 4.98075C19.5632 5.14442 19.332 5.23636 19.0909 5.23636H18.0855L16.7182 17.0636C16.5947 18.131 16.0655 19.1172 15.2318 19.8334C14.3982 20.5496 13.3187 20.9456 12.2 20.9455H7.8C6.68127 20.9456 5.60179 20.5496 4.76816 19.8334C3.93454 19.1172 3.40533 18.131 3.28182 17.0636L1.91273 5.23636H0.909091C0.667985 5.23636 0.436754 5.14442 0.266267 4.98075C0.0957791 4.81708 0 4.5951 0 4.36364C0 4.13217 0.0957791 3.91019 0.266267 3.74652C0.436754 3.58286 0.667985 3.49091 0.909091 3.49091H6.36364C6.36364 2.56506 6.74675 1.67714 7.4287 1.02246C8.11065 0.367791 9.03558 0 10 0C10.9644 0 11.8893 0.367791 12.5713 1.02246C13.2532 1.67714 13.6364 2.56506 13.6364 3.49091V3.49091ZM10 1.74545C9.51779 1.74545 9.05533 1.92935 8.71435 2.25669C8.37338 2.58402 8.18182 3.02799 8.18182 3.49091H11.8182C11.8182 3.02799 11.6266 2.58402 11.2856 2.25669C10.9447 1.92935 10.4822 1.74545 10 1.74545V1.74545ZM3.74364 5.23636L5.08909 16.8716C5.16336 17.5119 5.48096 18.1034 5.98112 18.533C6.48128 18.9626 7.12888 19.2001 7.8 19.2H12.2C12.8708 19.1997 13.518 18.962 14.0177 18.5324C14.5175 18.1029 14.8349 17.5116 14.9091 16.8716L16.2582 5.23636H3.74545H3.74364Z" fill="#F78989"/>
</svg>
