<svg width="35" height="35" viewBox="0 0 35 35" fill="none" xmlns="http://www.w3.org/2000/svg">
<path d="M7.89286 23.144C7.47286 23.144 7.17286 23 6.99286 22.712C6.81286 22.424 6.81886 22.076 7.01086 21.668L11.7629 11.138C11.9189 10.79 12.1049 10.544 12.3209 10.4C12.5489 10.244 12.8069 10.166 13.0949 10.166C13.3709 10.166 13.6169 10.244 13.8329 10.4C14.0609 10.544 14.2529 10.79 14.4089 11.138L19.1789 21.668C19.3709 22.088 19.3829 22.442 19.2149 22.73C19.0469 23.006 18.7589 23.144 18.3509 23.144C18.0149 23.144 17.7509 23.066 17.5589 22.91C17.3789 22.742 17.2169 22.49 17.0729 22.154L16.1729 20.066H9.98086L9.09886 22.154C8.94286 22.502 8.78086 22.754 8.61286 22.91C8.44486 23.066 8.20486 23.144 7.89286 23.144ZM13.0589 12.812L10.7729 18.23H15.3809L13.0949 12.812H13.0589ZM23.8434 23.18C23.2074 23.18 22.6374 23.06 22.1334 22.82C21.6414 22.568 21.2514 22.232 20.9634 21.812C20.6874 21.392 20.5494 20.918 20.5494 20.39C20.5494 19.742 20.7174 19.232 21.0534 18.86C21.3894 18.476 21.9354 18.2 22.6914 18.032C23.4474 17.864 24.4614 17.78 25.7334 17.78H26.3634V17.402C26.3634 16.802 26.2314 16.37 25.9674 16.106C25.7034 15.842 25.2594 15.71 24.6354 15.71C24.2874 15.71 23.9094 15.752 23.5014 15.836C23.1054 15.92 22.6854 16.064 22.2414 16.268C21.9534 16.4 21.7134 16.418 21.5214 16.322C21.3294 16.214 21.1974 16.052 21.1254 15.836C21.0654 15.608 21.0774 15.38 21.1614 15.152C21.2574 14.924 21.4434 14.756 21.7194 14.648C22.2714 14.42 22.7994 14.258 23.3034 14.162C23.8194 14.066 24.2874 14.018 24.7074 14.018C25.9914 14.018 26.9454 14.318 27.5694 14.918C28.1934 15.506 28.5054 16.424 28.5054 17.672V21.992C28.5054 22.76 28.1574 23.144 27.4614 23.144C26.7534 23.144 26.3994 22.76 26.3994 21.992V21.596C26.1954 22.088 25.8714 22.478 25.4274 22.766C24.9834 23.042 24.4554 23.18 23.8434 23.18ZM24.3114 21.632C24.8994 21.632 25.3854 21.428 25.7694 21.02C26.1654 20.612 26.3634 20.096 26.3634 19.472V19.076H25.7514C24.6234 19.076 23.8374 19.166 23.3934 19.346C22.9614 19.514 22.7454 19.826 22.7454 20.282C22.7454 20.678 22.8834 21.002 23.1594 21.254C23.4354 21.506 23.8194 21.632 24.3114 21.632Z" fill="white"/>
<circle cx="17.5" cy="17.5" r="16.5" stroke="white" stroke-width="2"/>
</svg>
