<svg width="20" height="29" viewBox="0 0 20 29" fill="none" xmlns="http://www.w3.org/2000/svg">
<path fill-rule="evenodd" clip-rule="evenodd" d="M2.85714 27.1429C2.85714 27.5217 2.70663 27.8851 2.43872 28.153C2.17081 28.4209 1.80745 28.5714 1.42857 28.5714C1.04969 28.5714 0.686328 28.4209 0.418419 28.153C0.15051 27.8851 0 27.5217 0 27.1429V1.42857C0 1.04969 0.15051 0.686328 0.418419 0.418419C0.686328 0.15051 1.04969 0 1.42857 0C1.80745 0 2.17081 0.15051 2.43872 0.418419C2.70663 0.686328 2.85714 1.04969 2.85714 1.42857V27.1429ZM8.57143 10C7.81367 10 7.08694 9.69898 6.55112 9.16316C6.01531 8.62734 5.71429 7.90062 5.71429 7.14286C5.71429 6.3851 6.01531 5.65837 6.55112 5.12255C7.08694 4.58673 7.81367 4.28571 8.57143 4.28571H17.1429C17.9006 4.28571 18.6273 4.58673 19.1632 5.12255C19.699 5.65837 20 6.3851 20 7.14286C20 7.90062 19.699 8.62734 19.1632 9.16316C18.6273 9.69898 17.9006 10 17.1429 10H8.57143ZM8.57143 14.2857H14.2857C15.0435 14.2857 15.7702 14.5867 16.306 15.1226C16.8418 15.6584 17.1429 16.3851 17.1429 17.1429C17.1429 17.9006 16.8418 18.6273 16.306 19.1632C15.7702 19.699 15.0435 20 14.2857 20H8.57143C7.81367 20 7.08694 19.699 6.55112 19.1632C6.01531 18.6273 5.71429 17.9006 5.71429 17.1429C5.71429 16.3851 6.01531 15.6584 6.55112 15.1226C7.08694 14.5867 7.81367 14.2857 8.57143 14.2857Z" fill="white"/>
</svg>
