<svg width="28" height="20" viewBox="0 0 28 20" fill="none" xmlns="http://www.w3.org/2000/svg">
<path d="M11.4286 2.85714H1.42857C0.639732 2.85714 0 2.21741 0 1.42857C0 0.639732 0.639732 0 1.42857 0H11.4286C12.2188 0 12.8571 0.639732 12.8571 1.42857C12.8571 2.21741 12.2188 2.85714 11.4286 2.85714ZM11.4286 14.2857H1.42857C0.639732 14.2857 0 13.6473 0 12.8571C0 12.067 0.639732 11.4286 1.42857 11.4286H11.4286C12.2188 11.4286 12.8571 12.067 12.8571 12.8571C12.8571 13.6473 12.2188 14.2857 11.4286 14.2857ZM0 7.14286C0 6.35268 0.639732 5.71429 1.42857 5.71429H18.5714C19.3616 5.71429 20 6.35268 20 7.14286C20 7.93304 19.3616 8.57143 18.5714 8.57143H1.42857C0.639732 8.57143 0 7.93304 0 7.14286ZM18.5714 20H1.42857C0.639732 20 0 19.3616 0 18.5714C0 17.7812 0.639732 17.1429 1.42857 17.1429H18.5714C19.3616 17.1429 20 17.7812 20 18.5714C20 19.3616 19.3616 20 18.5714 20Z" fill="white"/>
<path d="M22.1716 10.3296L27.3723 13.9301C27.4323 13.9717 27.5026 13.996 27.5754 14.0005C27.6483 14.0049 27.7209 13.9894 27.7856 13.9555C27.8502 13.9217 27.9044 13.8707 27.9422 13.8083C27.98 13.7459 28 13.6743 28 13.6013V6.40032C28 6.3273 27.9801 6.25566 27.9423 6.19316C27.9046 6.13067 27.8504 6.0797 27.7858 6.04578C27.7211 6.01186 27.6484 5.99629 27.5755 6.00075C27.5026 6.00521 27.4324 6.02953 27.3723 6.07107L22.1716 9.67156C22.1186 9.70854 22.0754 9.75776 22.0455 9.81505C22.0156 9.87234 22 9.93599 22 10.0006C22 10.0652 22.0156 10.1289 22.0455 10.1862C22.0754 10.2434 22.1186 10.2927 22.1716 10.3296Z" fill="white"/>
</svg>
