<svg width="38" height="39" viewBox="0 0 38 39" fill="none" xmlns="http://www.w3.org/2000/svg">
<g filter="url(#filter0_d_10_460)">
<path d="M4 22.1649C4 23.4601 4.51454 24.7023 5.43043 25.6182C6.34631 26.5341 7.58852 27.0487 8.88378 27.0487H16.2696L16.8045 24.9103C17.048 23.9366 17.5514 23.047 18.2622 22.3377L27.1311 13.4672C27.64 12.9574 28.2546 12.5653 28.9314 12.3186C29.6083 12.072 30.331 11.9768 31.0487 12.0397V4.88378C31.0487 3.58852 30.5341 2.34631 29.6182 1.43043C28.7023 0.51454 27.4601 0 26.1649 0H16.0216V7.13784C16.0216 7.77919 15.8953 8.41425 15.6499 9.00678C15.4044 9.59931 15.0447 10.1377 14.5912 10.5912C14.1377 11.0447 13.5993 11.4044 13.0068 11.6499C12.4143 11.8953 11.7792 12.0216 11.1378 12.0216H4V22.1649ZM13.7676 0.661189L4.66119 9.76757H11.1378C11.8353 9.76757 12.5042 9.49051 12.9973 8.99734C13.4905 8.50417 13.7676 7.83529 13.7676 7.13784V0.661189ZM28.1935 14.5311L19.3231 23.4001C18.8063 23.9171 18.4396 24.5648 18.2622 25.274L17.5739 28.0254C17.5055 28.2992 17.5091 28.586 17.5845 28.8579C17.6599 29.1298 17.8044 29.3776 18.004 29.5771C18.2036 29.7765 18.4515 29.9209 18.7235 29.996C18.9955 30.0712 19.2823 30.0746 19.556 30.006L22.3059 29.3192C23.0158 29.1417 23.6641 28.7745 24.1813 28.2568L33.0503 19.3879C33.6695 18.7388 34.0103 17.8732 33.9998 16.9762C33.9892 16.0792 33.6282 15.2219 32.9939 14.5875C32.3595 13.9532 31.5022 13.5922 30.6052 13.5816C29.7081 13.5711 28.8426 13.9119 28.1935 14.5311V14.5311Z"/>
</g>
<defs>
<filter id="filter0_d_10_460" x="0" y="0" width="38" height="38.0547" filterUnits="userSpaceOnUse" color-interpolation-filters="sRGB">
<feFlood flood-opacity="0" result="BackgroundImageFix"/>
<feColorMatrix in="SourceAlpha" type="matrix" values="0 0 0 0 0 0 0 0 0 0 0 0 0 0 0 0 0 0 127 0" result="hardAlpha"/>
<feOffset dy="4"/>
<feGaussianBlur stdDeviation="2"/>
<feComposite in2="hardAlpha" operator="out"/>
<feColorMatrix type="matrix" values="0 0 0 0 0 0 0 0 0 0 0 0 0 0 0 0 0 0 0.25 0"/>
<feBlend mode="normal" in2="BackgroundImageFix" result="effect1_dropShadow_10_460"/>
<feBlend mode="normal" in="SourceGraphic" in2="effect1_dropShadow_10_460" result="shape"/>
</filter>
</defs>
</svg>
