<svg width="100" height="100" viewBox="0 0 100 100" fill="none" xmlns="http://www.w3.org/2000/svg">
<path d="M56.25 28.125C56.25 35.5842 53.2868 42.7379 48.0124 48.0124C42.7379 53.2868 35.5842 56.25 28.125 56.25C20.6658 56.25 13.5121 53.2868 8.23762 48.0124C2.96316 42.7379 0 35.5842 0 28.125C0 20.6658 2.96316 13.5121 8.23762 8.23762C13.5121 2.96316 20.6658 0 28.125 0C35.5842 0 42.7379 2.96316 48.0124 8.23762C53.2868 13.5121 56.25 20.6658 56.25 28.125ZM31.25 15.625C31.25 14.7962 30.9208 14.0013 30.3347 13.4153C29.7487 12.8292 28.9538 12.5 28.125 12.5C27.2962 12.5 26.5013 12.8292 25.9153 13.4153C25.3292 14.0013 25 14.7962 25 15.625V25H15.625C14.7962 25 14.0013 25.3292 13.4153 25.9153C12.8292 26.5013 12.5 27.2962 12.5 28.125C12.5 28.9538 12.8292 29.7487 13.4153 30.3347C14.0013 30.9208 14.7962 31.25 15.625 31.25H25V40.625C25 41.4538 25.3292 42.2487 25.9153 42.8347C26.5013 43.4208 27.2962 43.75 28.125 43.75C28.9538 43.75 29.7487 43.4208 30.3347 42.8347C30.9208 42.2487 31.25 41.4538 31.25 40.625V31.25H40.625C41.4538 31.25 42.2487 30.9208 42.8347 30.3347C43.4208 29.7487 43.75 28.9538 43.75 28.125C43.75 27.2962 43.4208 26.5013 42.8347 25.9153C42.2487 25.3292 41.4538 25 40.625 25H31.25V15.625ZM81.25 18.75H61.2063C60.5947 16.5911 59.772 14.4976 58.75 12.5H81.25C86.0326 12.4997 90.6345 14.327 94.1141 17.608C97.5938 20.889 99.6882 25.3757 99.9688 30.15L100 31.25V58.6187C99.9993 61.5534 98.966 64.3943 97.0813 66.6438L96.3375 67.4563L67.4563 96.3375C65.3811 98.4126 62.642 99.6915 59.7188 99.95L58.6187 100H31.25C26.4674 100 21.8655 98.173 18.3859 94.892C14.9062 91.611 12.8118 87.1243 12.5313 82.35L12.5 81.25V58.75C14.4812 59.7625 16.5688 60.5875 18.75 61.2063V81.25C18.749 84.4036 19.94 87.441 22.0844 89.7534C24.2287 92.0658 27.1678 93.4822 30.3125 93.7188L31.25 93.75H56.25V75C56.2497 70.2174 58.077 65.6155 61.358 62.1359C64.639 58.6562 69.1257 56.5618 73.9 56.2812L75 56.25H93.75V31.25C93.751 28.0964 92.56 25.059 90.4156 22.7466C88.2713 20.4342 85.3322 19.0178 82.1875 18.7812L81.25 18.75ZM92.3938 62.5063L75 62.5C71.8464 62.499 68.809 63.69 66.4966 65.8344C64.1842 67.9787 62.7678 70.9178 62.5312 74.0625L62.5 75V92.3812L63.0375 91.9187L91.9187 63.0375C92.0865 62.8709 92.2431 62.6935 92.3875 62.5063H92.3938Z" fill="#2A2A32"/>
</svg>
