<svg width="30" height="30" viewBox="0 0 30 30" fill="none" xmlns="http://www.w3.org/2000/svg">
<path d="M15 0C12.0333 0 9.13319 0.879734 6.66645 2.52796C4.19972 4.17618 2.27713 6.51885 1.14181 9.25975C0.00649926 12.0006 -0.290551 15.0166 0.288228 17.9263C0.867006 20.8361 2.29562 23.5088 4.3934 25.6066C6.49119 27.7044 9.16394 29.133 12.0737 29.7118C14.9834 30.2906 17.9994 29.9935 20.7403 28.8582C23.4811 27.7229 25.8238 25.8003 27.472 23.3335C29.1203 20.8668 30 17.9667 30 15C30 13.0302 29.612 11.0796 28.8582 9.25975C28.1044 7.43986 26.9995 5.78628 25.6066 4.3934C24.2137 3.00052 22.5601 1.89563 20.7403 1.14181C18.9204 0.387986 16.9698 0 15 0ZM19.5 16.5H16.5V19.5C16.5 19.8978 16.342 20.2794 16.0607 20.5607C15.7794 20.842 15.3978 21 15 21C14.6022 21 14.2206 20.842 13.9393 20.5607C13.658 20.2794 13.5 19.8978 13.5 19.5V16.5H10.5C10.1022 16.5 9.72065 16.342 9.43935 16.0607C9.15804 15.7794 9 15.3978 9 15C9 14.6022 9.15804 14.2206 9.43935 13.9393C9.72065 13.658 10.1022 13.5 10.5 13.5H13.5V10.5C13.5 10.1022 13.658 9.72064 13.9393 9.43934C14.2206 9.15803 14.6022 9 15 9C15.3978 9 15.7794 9.15803 16.0607 9.43934C16.342 9.72064 16.5 10.1022 16.5 10.5V13.5H19.5C19.8978 13.5 20.2794 13.658 20.5607 13.9393C20.842 14.2206 21 14.6022 21 15C21 15.3978 20.842 15.7794 20.5607 16.0607C20.2794 16.342 19.8978 16.5 19.5 16.5Z" fill="white"/>
</svg>
