<svg width="20" height="29" viewBox="0 0 20 29" fill="none" xmlns="http://www.w3.org/2000/svg">
<path fill-rule="evenodd" clip-rule="evenodd" d="M20 27.1429C20 27.5217 19.8495 27.8851 19.5816 28.153C19.3137 28.4209 18.9503 28.5714 18.5714 28.5714C18.1925 28.5714 17.8292 28.4209 17.5613 28.153C17.2934 27.8851 17.1429 27.5217 17.1429 27.1429V1.42857C17.1429 1.04969 17.2934 0.686328 17.5613 0.418419C17.8292 0.15051 18.1925 0 18.5714 0C18.9503 0 19.3137 0.15051 19.5816 0.418419C19.8495 0.686328 20 1.04969 20 1.42857V27.1429ZM11.4286 4.28571C12.1863 4.28571 12.9131 4.58673 13.4489 5.12255C13.9847 5.65837 14.2857 6.3851 14.2857 7.14286C14.2857 7.90062 13.9847 8.62734 13.4489 9.16316C12.9131 9.69898 12.1863 10 11.4286 10H2.85714C2.09938 10 1.37266 9.69898 0.836838 9.16316C0.301019 8.62734 0 7.90062 0 7.14286C0 6.3851 0.301019 5.65837 0.836838 5.12255C1.37266 4.58673 2.09938 4.28571 2.85714 4.28571H11.4286ZM11.4286 14.2857C12.1863 14.2857 12.9131 14.5867 13.4489 15.1226C13.9847 15.6584 14.2857 16.3851 14.2857 17.1429C14.2857 17.9006 13.9847 18.6273 13.4489 19.1632C12.9131 19.699 12.1863 20 11.4286 20H5.71429C4.95652 20 4.2298 19.699 3.69398 19.1632C3.15816 18.6273 2.85714 17.9006 2.85714 17.1429C2.85714 16.3851 3.15816 15.6584 3.69398 15.1226C4.2298 14.5867 4.95652 14.2857 5.71429 14.2857H11.4286Z" fill="white"/>
</svg>
