<svg width="28" height="20" viewBox="0 0 28 20" fill="none" xmlns="http://www.w3.org/2000/svg">
<path d="M19.4286 2.85714H9.42857C8.63973 2.85714 8 2.21741 8 1.42857C8 0.639732 8.63973 0 9.42857 0H19.4286C20.2188 0 20.8571 0.639732 20.8571 1.42857C20.8571 2.21741 20.2188 2.85714 19.4286 2.85714ZM19.4286 14.2857H9.42857C8.63973 14.2857 8 13.6473 8 12.8571C8 12.067 8.63973 11.4286 9.42857 11.4286H19.4286C20.2188 11.4286 20.8571 12.067 20.8571 12.8571C20.8571 13.6473 20.2188 14.2857 19.4286 14.2857ZM8 7.14286C8 6.35268 8.63973 5.71429 9.42857 5.71429H26.5714C27.3616 5.71429 28 6.35268 28 7.14286C28 7.93304 27.3616 8.57143 26.5714 8.57143H9.42857C8.63973 8.57143 8 7.93304 8 7.14286ZM26.5714 20H9.42857C8.63973 20 8 19.3616 8 18.5714C8 17.7812 8.63973 17.1429 9.42857 17.1429H26.5714C27.3616 17.1429 28 17.7812 28 18.5714C28 19.3616 27.3616 20 26.5714 20Z" fill="white"/>
<path d="M5.82839 9.67133L0.627685 6.07084C0.567667 6.02931 0.497431 6.00499 0.424583 6.00052C0.351735 5.99604 0.279051 6.01158 0.214401 6.04545C0.149751 6.07932 0.0955987 6.13024 0.057807 6.19267C0.0200152 6.25511 2.47955e-05 6.3267 4.76837e-07 6.39969L4.76837e-07 13.6007C-4.81606e-05 13.6737 0.0198889 13.7453 0.057651 13.8078C0.0954137 13.8703 0.14956 13.9213 0.214224 13.9552C0.278887 13.9891 0.3516 14.0047 0.424483 14.0002C0.497366 13.9958 0.567639 13.9714 0.627685 13.9299L5.82839 10.3294C5.88137 10.2924 5.92464 10.2432 5.95452 10.1859C5.9844 10.1286 6 10.065 6 10.0004C6 9.93576 5.9844 9.87211 5.95452 9.81482C5.92464 9.75753 5.88137 9.7083 5.82839 9.67133Z" fill="white"/>
</svg>
